<svg height='300px' width='300px'  fill="#000000" xmlns="http://www.w3.org/2000/svg" xmlns:xlink="http://www.w3.org/1999/xlink" version="1.1" x="0px" y="0px" viewBox="0 0 100 100" enable-background="new 0 0 100 100" xml:space="preserve"><g><path fill="#000000" d="M28.7,72.5c0,0-1.5,2.9,0.5,4.6c2.1,1.8,7,0.3,4.6-3.1C31.6,70.6,28.7,72.5,28.7,72.5z"></path><path fill="#000000" d="M33.5,63.5c0.3-1,0.2-1.8-1.6-1.1c-1.8,0.7-1.2,2.2-1.2,2.2C32,65.3,33.2,64.5,33.5,63.5z"></path><path fill="#000000" d="M23.8,61.8c-1.3,3.8,4.7,5.2,5,4.9C30.1,65.3,25.1,58,23.8,61.8z"></path><path fill="#000000" d="M71.5,69.2c3.2,2.4,6.4-2.8,6.2-3.2C76.7,64.3,68.2,66.8,71.5,69.2z"></path><path fill="#000000" d="M68.9,54.9c-7.1,0.8-5,11.6-4.2,11.8C68.1,67.8,76,54.1,68.9,54.9z"></path><path fill="#000000" d="M27.9,79.1C27.9,79.1,27.9,79.1,27.9,79.1C27.9,79.1,27.9,79.1,27.9,79.1z"></path><path fill="#000000" d="M84.1,81c0,0-3.6-0.2-5.1-1.1c0,0-0.8,1-2.8,0.4c-1.9-0.5-1.5-1.3-2.5-3.5c0,0,0,2.9-2.6,3   c-2.6,0.1-9.4-1.4-9.8-4.3c-0.2-1.4-1-1.8-1.7-1.9l-2.3-14.8c0,1.3-0.4,2.4-1,3.3c0-1.5,0.1-2.7,0.1-3.9c-0.1-3.4,2-4.9,3.5-6   c1.5-1.1,0.1-2.4,1.4-3.7s0.8-3.6,1.4-4.1c0.7-0.5,1.6-1.9,2.1-3.8c0.5-1.9,0.5-3.3,1.4-4.5c0.9-1.1-0.2-7.1-1.9-5.1   c-1.5,1.8-3.5,3.2-3.5,5.7c-0.1,2-1.6,4.4-3.7,5.7c-2.1,1.3-0.2-6.2,0-7.7c0.2-1.4,0.6-5.5,0.8-7.1c0.2-1.7-0.2-2.7-0.4-4.4   c-0.2-1.7,0.4-4.3-1.4-5.5s-3.5,2-3.3,3.8c0.2,1.8,1,5.3,0.4,8.5c-0.6,3.2-0.2,5.1-1.6,6.1s-1.2-2.4-1.7-4.9   c-0.5-2.5-0.8-3.3-0.5-4.4c0.3-1.1,0-2.7,0.5-4c0.5-1.4-0.8-4.3-2.6-4.3c-1.8,0-1.8,3.9-2.4,5c-0.6,1.1-0.8,3.4,0,4.6   c0.8,1.2,0.4,3.7,0.8,5.8c0.4,2.1,0.9,3.7,0.2,3.4c-0.7-0.3-0.8-3.6-1.4-4.8c-0.6-1.2-0.2-2.4-0.5-3.8c-0.2-1.4-1.1-3.8-0.9-5.3   c0.2-1.5,0.2-2.9-1.1-3.7c-1.3-0.8-2.6,0.8-2.8,2.4c-0.2,1.6,0,2.1,0.2,4.3s-0.6,3.1,0,5.5c0.6,2.4,2.7,6.5,2.7,6.5   s-2.1-0.5-2.8-2.4c-0.7-1.9-0.9-4.2-1.9-5.3c-1-1.1-0.5-3.3-1.1-5.4c-0.6-2.1-3.2-0.6-3.4,1.7c-0.2,2.4,0.8,3.2,0.9,5   c0.1,1.8,1.3,2.4,2.5,4c1.2,1.6,0.3,1.1,1.3,3.2c1,2.1,1.4,3,1.9,6.8c0.5,3.8,0.9,5.3,2.1,6.3c1.1,1,1.6,2.6,1.2,3.8   c-0.4,1.2-2.5,1.5-1.9,3.3c0.6,1.7,1.7,3.5,1.9,6.8c0.1,1.5-0.3,4-0.7,6.1c-0.8-1.6-1.1-3.7-1.1-3.7l-1.9,10   c-0.1,0.1-3.4,1.7-7,1.3c-3.5-0.4-3.7-0.8-3.7-0.8c0,0.1,0.1,1.4-10.4,1.9H84.1z M52.5,47.9c0,0,1.7-1.1,3,0.9   c1.4,2-1.5,2.9-2.7,1.8C51.6,49.6,52.5,47.9,52.5,47.9z M48.6,41.6c2-1.4,1.9,4,0.7,4.3C49.1,45.9,46.6,43,48.6,41.6z"></path></g></svg>